<mxfile host="Electron" modified="2024-03-09T21:37:51.657Z" agent="Mozilla/5.0 (X11; Linux x86_64) AppleWebKit/537.36 (KHTML, like Gecko) draw.io/23.1.5 Chrome/120.0.6099.109 Electron/28.1.0 Safari/537.36" etag="KK2swTsg4GjiXaUY__-L" version="23.1.5" type="device">
  <diagram name="Page-1" id="d09H3-JXCVfidDn7u6ot">
    <mxGraphModel dx="801" dy="875" grid="1" gridSize="10" guides="1" tooltips="1" connect="1" arrows="1" fold="1" page="1" pageScale="1" pageWidth="827" pageHeight="1169" math="0" shadow="0">
      <root>
        <mxCell id="0" />
        <mxCell id="1" parent="0" />
        <mxCell id="RDpyPI0KjrjBRPkJG_iu-2" value="user" style="shape=umlLifeline;participant=umlActor;perimeter=lifelinePerimeter;html=1;container=1;collapsible=0;recursiveResize=0;verticalAlign=top;spacingTop=36;outlineConnect=0;size=40;fillColor=#f8cecc;strokeColor=#b85450;" parent="1" vertex="1">
          <mxGeometry x="130" y="80" width="20" height="530" as="geometry" />
        </mxCell>
        <mxCell id="RDpyPI0KjrjBRPkJG_iu-3" value="" style="html=1;points=[];perimeter=orthogonalPerimeter;fillColor=#f8cecc;strokeColor=#b85450;" parent="RDpyPI0KjrjBRPkJG_iu-2" vertex="1">
          <mxGeometry x="5" y="70" width="10" height="380" as="geometry" />
        </mxCell>
        <mxCell id="RDpyPI0KjrjBRPkJG_iu-4" value="Browser" style="shape=umlLifeline;perimeter=lifelinePerimeter;whiteSpace=wrap;html=1;container=1;collapsible=0;recursiveResize=0;outlineConnect=0;fillColor=#ffe6cc;strokeColor=#d79b00;" parent="1" vertex="1">
          <mxGeometry x="240" y="90" width="100" height="490" as="geometry" />
        </mxCell>
        <mxCell id="RDpyPI0KjrjBRPkJG_iu-5" value="" style="html=1;points=[];perimeter=orthogonalPerimeter;fillColor=#ffe6cc;strokeColor=#d79b00;" parent="RDpyPI0KjrjBRPkJG_iu-4" vertex="1">
          <mxGeometry x="45" y="80" width="10" height="150" as="geometry" />
        </mxCell>
        <mxCell id="RDpyPI0KjrjBRPkJG_iu-8" value="" style="html=1;points=[];perimeter=orthogonalPerimeter;fillColor=#ffe6cc;strokeColor=#d79b00;" parent="RDpyPI0KjrjBRPkJG_iu-4" vertex="1">
          <mxGeometry x="45" y="275" width="10" height="160" as="geometry" />
        </mxCell>
        <mxCell id="fbmXNVLakk9ex8O59aj3-4" value="AccesURL" style="html=1;verticalAlign=bottom;endArrow=block;entryX=0;entryY=0;rounded=0;" edge="1" parent="RDpyPI0KjrjBRPkJG_iu-4">
          <mxGeometry relative="1" as="geometry">
            <mxPoint x="-95" y="275" as="sourcePoint" />
            <mxPoint x="45" y="275" as="targetPoint" />
          </mxGeometry>
        </mxCell>
        <mxCell id="fbmXNVLakk9ex8O59aj3-13" value="Dessine Mire" style="html=1;verticalAlign=bottom;endArrow=open;dashed=1;endSize=8;curved=0;rounded=0;exitX=0.4;exitY=0.987;exitDx=0;exitDy=0;exitPerimeter=0;entryX=1.1;entryY=0.4;entryDx=0;entryDy=0;entryPerimeter=0;" edge="1" parent="RDpyPI0KjrjBRPkJG_iu-4">
          <mxGeometry relative="1" as="geometry">
            <mxPoint x="45" y="425" as="sourcePoint" />
            <mxPoint x="-98" y="425" as="targetPoint" />
          </mxGeometry>
        </mxCell>
        <mxCell id="RDpyPI0KjrjBRPkJG_iu-10" value="AccesURL" style="html=1;verticalAlign=bottom;endArrow=block;entryX=0;entryY=0;rounded=0;" parent="1" source="RDpyPI0KjrjBRPkJG_iu-3" target="RDpyPI0KjrjBRPkJG_iu-5" edge="1">
          <mxGeometry relative="1" as="geometry">
            <mxPoint x="245" y="170" as="sourcePoint" />
          </mxGeometry>
        </mxCell>
        <mxCell id="RDpyPI0KjrjBRPkJG_iu-11" value="ServerApp" style="shape=umlLifeline;perimeter=lifelinePerimeter;whiteSpace=wrap;html=1;container=1;collapsible=0;recursiveResize=0;outlineConnect=0;fillColor=#dae8fc;strokeColor=#6c8ebf;" parent="1" vertex="1">
          <mxGeometry x="400" y="90" width="100" height="490" as="geometry" />
        </mxCell>
        <mxCell id="RDpyPI0KjrjBRPkJG_iu-12" value="" style="html=1;points=[];perimeter=orthogonalPerimeter;fillColor=#dae8fc;strokeColor=#6c8ebf;" parent="RDpyPI0KjrjBRPkJG_iu-11" vertex="1">
          <mxGeometry x="45" y="110" width="10" height="40" as="geometry" />
        </mxCell>
        <mxCell id="fbmXNVLakk9ex8O59aj3-5" value="" style="html=1;points=[];perimeter=orthogonalPerimeter;fillColor=#dae8fc;strokeColor=#6c8ebf;" vertex="1" parent="RDpyPI0KjrjBRPkJG_iu-11">
          <mxGeometry x="45" y="293" width="10" height="40" as="geometry" />
        </mxCell>
        <mxCell id="fbmXNVLakk9ex8O59aj3-8" value="return" style="html=1;verticalAlign=bottom;endArrow=open;dashed=1;endSize=8;curved=0;rounded=0;" edge="1" parent="RDpyPI0KjrjBRPkJG_iu-11">
          <mxGeometry relative="1" as="geometry">
            <mxPoint x="55" y="149" as="sourcePoint" />
            <mxPoint x="-105" y="149" as="targetPoint" />
          </mxGeometry>
        </mxCell>
        <mxCell id="RDpyPI0KjrjBRPkJG_iu-15" value="IDP" style="shape=umlLifeline;perimeter=lifelinePerimeter;whiteSpace=wrap;html=1;container=1;collapsible=0;recursiveResize=0;outlineConnect=0;fillColor=#d5e8d4;strokeColor=#82b366;" parent="1" vertex="1">
          <mxGeometry x="520" y="90" width="100" height="490" as="geometry" />
        </mxCell>
        <mxCell id="RDpyPI0KjrjBRPkJG_iu-17" value="" style="html=1;points=[];perimeter=orthogonalPerimeter;fillColor=#d5e8d4;strokeColor=#82b366;" parent="RDpyPI0KjrjBRPkJG_iu-15" vertex="1">
          <mxGeometry x="45" y="180" width="10" height="40" as="geometry" />
        </mxCell>
        <mxCell id="fbmXNVLakk9ex8O59aj3-6" value="" style="html=1;points=[];perimeter=orthogonalPerimeter;fillColor=#d5e8d4;strokeColor=#82b366;" vertex="1" parent="RDpyPI0KjrjBRPkJG_iu-15">
          <mxGeometry x="45" y="365" width="10" height="40" as="geometry" />
        </mxCell>
        <mxCell id="fbmXNVLakk9ex8O59aj3-9" value="return" style="html=1;verticalAlign=bottom;endArrow=open;dashed=1;endSize=8;curved=0;rounded=0;" edge="1" parent="RDpyPI0KjrjBRPkJG_iu-15" target="RDpyPI0KjrjBRPkJG_iu-4">
          <mxGeometry relative="1" as="geometry">
            <mxPoint x="54" y="220" as="sourcePoint" />
            <mxPoint x="-106" y="220" as="targetPoint" />
          </mxGeometry>
        </mxCell>
        <mxCell id="fbmXNVLakk9ex8O59aj3-2" value="AccesURL" style="html=1;verticalAlign=bottom;endArrow=block;rounded=0;" edge="1" parent="1">
          <mxGeometry relative="1" as="geometry">
            <mxPoint x="290" y="385" as="sourcePoint" />
            <mxPoint x="449.5" y="385" as="targetPoint" />
          </mxGeometry>
        </mxCell>
        <mxCell id="fbmXNVLakk9ex8O59aj3-3" value="RequeteHttp" style="html=1;verticalAlign=bottom;endArrow=block;rounded=0;" edge="1" parent="1" target="RDpyPI0KjrjBRPkJG_iu-11">
          <mxGeometry relative="1" as="geometry">
            <mxPoint x="290" y="200" as="sourcePoint" />
            <mxPoint x="430" y="200" as="targetPoint" />
          </mxGeometry>
        </mxCell>
        <mxCell id="fbmXNVLakk9ex8O59aj3-1" value="RequeteHttp" style="html=1;verticalAlign=bottom;endArrow=block;entryX=0.2;entryY=0.154;rounded=0;entryDx=0;entryDy=0;entryPerimeter=0;" edge="1" parent="1" source="RDpyPI0KjrjBRPkJG_iu-4" target="RDpyPI0KjrjBRPkJG_iu-17">
          <mxGeometry relative="1" as="geometry">
            <mxPoint x="295" y="280" as="sourcePoint" />
            <mxPoint x="435" y="280" as="targetPoint" />
          </mxGeometry>
        </mxCell>
        <mxCell id="fbmXNVLakk9ex8O59aj3-7" value="return" style="html=1;verticalAlign=bottom;endArrow=open;dashed=1;endSize=8;curved=0;rounded=0;" edge="1" parent="1">
          <mxGeometry relative="1" as="geometry">
            <mxPoint x="450" y="425" as="sourcePoint" />
            <mxPoint x="289.5" y="425" as="targetPoint" />
          </mxGeometry>
        </mxCell>
        <mxCell id="fbmXNVLakk9ex8O59aj3-10" value="return" style="html=1;verticalAlign=bottom;endArrow=open;dashed=1;endSize=8;curved=0;rounded=0;" edge="1" parent="1">
          <mxGeometry relative="1" as="geometry">
            <mxPoint x="574" y="495" as="sourcePoint" />
            <mxPoint x="290" y="495" as="targetPoint" />
          </mxGeometry>
        </mxCell>
        <mxCell id="fbmXNVLakk9ex8O59aj3-11" value="RequeteHttp" style="html=1;verticalAlign=bottom;endArrow=block;entryX=0.2;entryY=0.154;rounded=0;entryDx=0;entryDy=0;entryPerimeter=0;" edge="1" parent="1">
          <mxGeometry relative="1" as="geometry">
            <mxPoint x="290" y="455" as="sourcePoint" />
            <mxPoint x="567" y="455" as="targetPoint" />
          </mxGeometry>
        </mxCell>
        <mxCell id="fbmXNVLakk9ex8O59aj3-12" value="Dessine Mire" style="html=1;verticalAlign=bottom;endArrow=open;dashed=1;endSize=8;curved=0;rounded=0;exitX=0.4;exitY=0.987;exitDx=0;exitDy=0;exitPerimeter=0;" edge="1" parent="1" source="RDpyPI0KjrjBRPkJG_iu-5" target="RDpyPI0KjrjBRPkJG_iu-2">
          <mxGeometry relative="1" as="geometry">
            <mxPoint x="424" y="310" as="sourcePoint" />
            <mxPoint x="140" y="310" as="targetPoint" />
          </mxGeometry>
        </mxCell>
      </root>
    </mxGraphModel>
  </diagram>
</mxfile>
